# xmcd CD database file
#
# Track frame offsets:
#	150
#	28454
#	48813
#	70433
#	90672
#	112142
#	135865
#	155229
#	174989
#	200620
#	222079
#	247351
#
# Disc length: 3581 seconds
#
# Revision: 20
# Processed by: cddbd v1.5.2PL0 Copyright (c) Steve Scherf et al.
# Submitted via: CDex 1.70beta2
#
DISCID=b50dfb0c
DTITLE=平井堅 - 歌バカ 2001-2005 WORKS
DYEAR=2005
DGENRE=DefSTAR RECORDS
TTITLE0=Miracles
TTITLE1=KISS OF LIFE
TTITLE2=Missin' you ～It will break my heart～
TTITLE3=Strawberry Sex
TTITLE4=大きな古時計
TTITLE5=Ring
TTITLE6=LIFE is... ～another story～
TTITLE7=style
TTITLE8=瞳をとじて
TTITLE9=キミはともだち
TTITLE10=思いがかさなるその前に…
TTITLE11=POP STAR
EXTD=YEAR: 2005
EXTT0=
EXTT1=
EXTT2=
EXTT3=
EXTT4=
EXTT5=
EXTT6=
EXTT7=
EXTT8=
EXTT9=
EXTT10=
EXTT11=
PLAYORDER=
